<?xml version="1.0" standalone="no"?><!DOCTYPE svg PUBLIC "-//W3C//DTD SVG 1.1//EN" "http://www.w3.org/Graphics/SVG/1.1/DTD/svg11.dtd"><svg t="1729583575546" class="icon" viewBox="0 0 1024 1024" version="1.1" xmlns="http://www.w3.org/2000/svg" p-id="1176" xmlns:xlink="http://www.w3.org/1999/xlink" width="48" height="48"><path d="M644.016371 273.811733c-43.306958 0-97.789905 34.924966-129.920873 64.261937-32.130969-30.73397-83.819918-64.261937-127.126876-64.261937-103.377899 0-174.624829 86.613915-174.624829 195.579809 0 62.864939 29.336971 106.171896 50.291951 138.302865 50.291951 75.437926 152.272851 155.066849 209.549795 194.18281l2.793997 1.396999c11.175989 8.381992 25.145975 12.572988 39.115962 12.572987 13.969986 0 26.542974-4.190996 39.115962-12.572987h1.396998s1.396999-1.396999 2.793998-1.396999C614.6794 762.761255 718.057299 683.132333 768.34925 607.694407c20.95498-32.130969 50.291951-75.437926 50.291951-138.302865 0-108.965894-69.849932-195.579809-174.62483-195.579809z" fill="#535a92" p-id="1177"></path></svg>