<?xml version="1.0" standalone="no"?><!DOCTYPE svg PUBLIC "-//W3C//DTD SVG 1.1//EN" "http://www.w3.org/Graphics/SVG/1.1/DTD/svg11.dtd"><svg t="1729583586642" class="icon" viewBox="0 0 1024 1024" version="1.1" xmlns="http://www.w3.org/2000/svg" p-id="1434" xmlns:xlink="http://www.w3.org/1999/xlink" width="48" height="48"><path d="M663.574352 189.991814c-61.46794 0-120.141883 30.73397-157.860846 79.628923-37.718963-48.894952-96.392906-79.628922-157.860846-79.628923-111.759891 0-202.564802 94.995907-202.564802 212.343793 0 69.849932 32.130969 118.744884 58.673943 159.257845 75.437926 114.553888 266.826739 257.047749 275.208731 264.032742 8.381992 5.587995 16.763984 8.381992 26.542974 8.381992 8.381992 0 18.160982-2.793997 26.542974-8.381992 8.381992-5.587995 199.770805-149.478854 275.208731-264.032742 26.542974-39.115962 58.673943-89.407913 58.673943-159.257845 0-117.347885-90.804911-212.343793-202.564802-212.343793z m92.20191 370.204639C684.529332 655.19236 536.447476 764.158254 529.462483 768.34925c-6.984993 5.587995-15.366985 8.381992-22.351978 8.381991-8.381992 0-15.366985-2.793997-22.351978-8.381991s-153.66985-114.553888-226.313779-212.343793c-25.145975-34.924966-62.864939-79.628922-62.864939-141.096862 0-104.774898 61.46794-178.815825 160.654843-178.815826 55.879945 0 115.950887 50.291951 149.478854 94.995908 33.527967-44.703956 93.598909-94.995907 149.478854-94.995908 100.583902 0 164.845839 74.040928 164.845839 178.815826 0 61.46794-40.51296 110.362892-64.261937 145.287858z" fill="#535a92" p-id="1435"></path></svg>